<svg xmlns="http://www.w3.org/2000/svg" viewBox="0 0 80 80" width="80" height="80">
  <!-- Body pixels - 10x7 grid, each pixel is 8x8 -->
  <g fill="#E8C4BA">
    <!-- Row 0 -->
    <rect x="16" y="0" width="8" height="8"/>
    <rect x="24" y="0" width="8" height="8"/>
    <rect x="32" y="0" width="8" height="8"/>
    <rect x="40" y="0" width="8" height="8"/>
    <rect x="48" y="0" width="8" height="8"/>
    <rect x="56" y="0" width="8" height="8"/>
    <!-- Row 1 -->
    <rect x="8" y="8" width="8" height="8"/>
    <rect x="16" y="8" width="8" height="8"/>
    <rect x="24" y="8" width="8" height="8"/>
    <rect x="32" y="8" width="8" height="8"/>
    <rect x="40" y="8" width="8" height="8"/>
    <rect x="48" y="8" width="8" height="8"/>
    <rect x="56" y="8" width="8" height="8"/>
    <rect x="64" y="8" width="8" height="8"/>
    <!-- Row 2 -->
    <rect x="0" y="16" width="8" height="8"/>
    <rect x="8" y="16" width="8" height="8"/>
    <rect x="16" y="16" width="8" height="8"/>
    <rect x="24" y="16" width="8" height="8"/>
    <rect x="32" y="16" width="8" height="8"/>
    <rect x="40" y="16" width="8" height="8"/>
    <rect x="48" y="16" width="8" height="8"/>
    <rect x="56" y="16" width="8" height="8"/>
    <rect x="64" y="16" width="8" height="8"/>
    <rect x="72" y="16" width="8" height="8"/>
    <!-- Row 3 -->
    <rect x="0" y="24" width="8" height="8"/>
    <rect x="8" y="24" width="8" height="8"/>
    <rect x="16" y="24" width="8" height="8"/>
    <rect x="24" y="24" width="8" height="8"/>
    <rect x="32" y="24" width="8" height="8"/>
    <rect x="40" y="24" width="8" height="8"/>
    <rect x="48" y="24" width="8" height="8"/>
    <rect x="56" y="24" width="8" height="8"/>
    <rect x="64" y="24" width="8" height="8"/>
    <rect x="72" y="24" width="8" height="8"/>
    <!-- Row 4 -->
    <rect x="0" y="32" width="8" height="8"/>
    <rect x="8" y="32" width="8" height="8"/>
    <rect x="16" y="32" width="8" height="8"/>
    <rect x="24" y="32" width="8" height="8"/>
    <rect x="32" y="32" width="8" height="8"/>
    <rect x="40" y="32" width="8" height="8"/>
    <rect x="48" y="32" width="8" height="8"/>
    <rect x="56" y="32" width="8" height="8"/>
    <rect x="64" y="32" width="8" height="8"/>
    <rect x="72" y="32" width="8" height="8"/>
    <!-- Row 5 -->
    <rect x="8" y="40" width="8" height="8"/>
    <rect x="16" y="40" width="8" height="8"/>
    <rect x="24" y="40" width="8" height="8"/>
    <rect x="32" y="40" width="8" height="8"/>
    <rect x="40" y="40" width="8" height="8"/>
    <rect x="48" y="40" width="8" height="8"/>
    <rect x="56" y="40" width="8" height="8"/>
    <rect x="64" y="40" width="8" height="8"/>
    <!-- Row 6 -->
    <rect x="16" y="48" width="8" height="8"/>
    <rect x="24" y="48" width="8" height="8"/>
    <rect x="32" y="48" width="8" height="8"/>
    <rect x="40" y="48" width="8" height="8"/>
    <rect x="48" y="48" width="8" height="8"/>
    <rect x="56" y="48" width="8" height="8"/>
  </g>
  <!-- Eyes - 2x2 pixels each -->
  <g fill="#1a1a1a">
    <!-- Left eye -->
    <rect x="16" y="24" width="8" height="8"/>
    <rect x="24" y="24" width="8" height="8"/>
    <rect x="16" y="32" width="8" height="8"/>
    <rect x="24" y="32" width="8" height="8"/>
    <!-- Right eye -->
    <rect x="48" y="24" width="8" height="8"/>
    <rect x="56" y="24" width="8" height="8"/>
    <rect x="48" y="32" width="8" height="8"/>
    <rect x="56" y="32" width="8" height="8"/>
  </g>
  <!-- Eye sparkles - small white pixel in top-left of each eye -->
  <g fill="#ffffff">
    <rect x="16" y="24" width="4" height="4"/>
    <rect x="48" y="24" width="4" height="4"/>
  </g>
  <!-- Feet - simple 1-wide columns -->
  <g fill="#D4A99E">
    <rect x="24" y="56" width="8" height="16"/>
    <rect x="48" y="56" width="8" height="16"/>
  </g>
</svg>
